<?xml version="1.0" encoding="UTF-8"?>
<svg width="296px" height="255px" viewBox="0 0 296 255" version="1.1" xmlns="http://www.w3.org/2000/svg" xmlns:xlink="http://www.w3.org/1999/xlink">
    <!-- Generator: Sketch 52.5 (67469) - http://www.bohemiancoding.com/sketch -->
    <title>noun_Home_2377294 (1)</title>
    <desc>Created with Sketch.</desc>
    <g id="Page-1" stroke="none" stroke-width="1" fill="none" fill-rule="evenodd">
        <g id="noun_Home_2377294-(1)" fill="#F5A623">
            <g id="Group">
                <path d="M284.529633,121.956522 C282.067674,121.956522 279.672126,121.178463 277.702559,119.73913 L147.988166,24.9456522 L18.2737733,119.73913 C13.2464554,123.413025 6.11442417,122.420265 2.34393573,117.521739 C-1.42655271,112.623213 -0.407691166,105.673894 4.6196267,102 L141.161093,2.2173913 C145.206766,-0.739130435 150.769567,-0.739130435 154.81524,2.2173913 L291.356706,102 C295.274813,104.863298 296.872951,109.848297 295.324183,114.375569 C293.775416,118.90284 289.427266,121.956522 284.529633,121.956522 Z" id="Path"></path>
                <path d="M250.394266,255 L182.123533,255 C175.839385,255 170.745077,250.0362 170.745077,243.913043 L170.745077,166.304348 L125.231255,166.304348 L125.231255,243.913043 C125.231255,250.0362 120.136947,255 113.8528,255 L45.5820666,255 C39.2979191,255 34.2036111,250.0362 34.2036111,243.913043 L34.2036111,88.6956522 C34.2036111,82.5724952 39.2979191,77.6086957 45.5820666,77.6086957 C51.8662141,77.6086957 56.9605221,82.5724952 56.9605221,88.6956522 L56.9605221,232.826087 L102.474344,232.826087 L102.474344,155.217391 C102.474344,149.094234 107.568652,144.130435 113.8528,144.130435 L182.123533,144.130435 C188.40768,144.130435 193.501988,149.094234 193.501988,155.217391 L193.501988,232.826087 L239.015811,232.826087 L239.015811,88.6956522 C239.015811,82.5724952 244.110119,77.6086957 250.394266,77.6086957 C256.678414,77.6086957 261.772722,82.5724952 261.772722,88.6956522 L261.772722,243.913043 C261.772722,250.0362 256.678414,255 250.394266,255 Z" id="Path"></path>
            </g>
        </g>
    </g>
</svg>